<svg width="24" height="24" viewBox="0 0 24 24" fill="none" xmlns="http://www.w3.org/2000/svg">
<mask id="mask0_214_15275" style="mask-type:alpha" maskUnits="userSpaceOnUse" x="0" y="0" width="24" height="24">
<rect width="24" height="24" fill="#D9D9D9"/>
</mask>
<g mask="url(#mask0_214_15275)">
<path d="M19 7C20.6569 7 22 8.34315 22 10V18C22 19.6569 20.6569 21 19 21H5C3.34315 21 2 19.6569 2 18V10C2 8.34315 3.34315 7 5 7H19ZM12.3838 10.3125C12.2714 9.92926 11.7286 9.92926 11.6162 10.3125L10.9297 12.6582C10.8914 12.7892 10.7892 12.8914 10.6582 12.9297L8.3125 13.6162C7.92926 13.7286 7.92926 14.2714 8.3125 14.3838L10.6582 15.0703C10.7892 15.1086 10.8914 15.2108 10.9297 15.3418L11.6162 17.6875C11.7286 18.0707 12.2714 18.0707 12.3838 17.6875L13.0703 15.3418C13.1086 15.2108 13.2108 15.1086 13.3418 15.0703L15.6875 14.3838C16.0707 14.2714 16.0707 13.7286 15.6875 13.6162L13.3418 12.9297C13.2108 12.8914 13.1086 12.7892 13.0703 12.6582L12.3838 10.3125ZM17 5C17.5523 5 18 5.44772 18 6H6C6 5.44772 6.44772 5 7 5H17ZM15 3C15.5523 3 16 3.44772 16 4H8C8 3.44772 8.44772 3 9 3H15Z" fill="#1C1B1F"/>
</g>
</svg>
