<svg width="24" height="24" viewBox="0 0 24 24" fill="none" xmlns="http://www.w3.org/2000/svg">
<mask id="mask0_214_15268" style="mask-type:alpha" maskUnits="userSpaceOnUse" x="0" y="0" width="24" height="24">
<rect width="24" height="24" fill="#D9D9D9"/>
</mask>
<g mask="url(#mask0_214_15268)">
<path d="M18 8C20.2091 8 22 9.79086 22 12V18C22 20.14 20.3194 21.8879 18.2061 21.9951L18 22H6L5.79395 21.9951C3.7488 21.8913 2.10865 20.2512 2.00488 18.2061L2 18V12C2 9.79086 3.79086 8 6 8H18ZM6 10C4.96435 10 4.113 10.7872 4.01074 11.7959L4 12V18C4 19.1046 4.89543 20 6 20H18C19.1046 20 20 19.1046 20 18V12C20 10.8954 19.1046 10 18 10H6ZM11.6162 11.3125C11.7286 10.9293 12.2714 10.9293 12.3838 11.3125L13.0703 13.6582C13.1086 13.7892 13.2108 13.8914 13.3418 13.9297L15.6875 14.6162C16.0707 14.7286 16.0707 15.2714 15.6875 15.3838L13.3418 16.0703C13.2108 16.1086 13.1086 16.2108 13.0703 16.3418L12.3838 18.6875C12.2714 19.0707 11.7286 19.0707 11.6162 18.6875L10.9297 16.3418C10.8914 16.2108 10.7892 16.1086 10.6582 16.0703L8.3125 15.3838C7.92926 15.2714 7.92926 14.7286 8.3125 14.6162L10.6582 13.9297C10.7892 13.8914 10.8914 13.7892 10.9297 13.6582L11.6162 11.3125ZM18 6C18.5523 6 19 6.44772 19 7H5C5 6.44772 5.44772 6 6 6H18ZM15 4C15.5523 4 16 4.44772 16 5H8C8 4.44772 8.44772 4 9 4H15Z" fill="#1C1B1F"/>
</g>
</svg>
