<svg width="24" height="24" viewBox="0 0 24 24" fill="none" xmlns="http://www.w3.org/2000/svg">
<mask id="mask0_214_15286" style="mask-type:alpha" maskUnits="userSpaceOnUse" x="0" y="0" width="24" height="24">
<rect width="24" height="24" fill="#D9D9D9"/>
</mask>
<g mask="url(#mask0_214_15286)">
<path d="M13.4 9C13.1791 9 13 8.82091 13 8.6V3.4C13 3.17909 13.1791 3 13.4 3H20.6C20.8209 3 21 3.17909 21 3.4V8.6C21 8.82091 20.8209 9 20.6 9H13.4ZM3.4 13C3.17909 13 3 12.8209 3 12.6V3.4C3 3.17909 3.17909 3 3.4 3H10.6C10.8209 3 11 3.17909 11 3.4V12.6C11 12.8209 10.8209 13 10.6 13H3.4ZM13.4 21C13.1791 21 13 20.8209 13 20.6V11.4C13 11.1791 13.1791 11 13.4 11H20.6C20.8209 11 21 11.1791 21 11.4V20.6C21 20.8209 20.8209 21 20.6 21H13.4ZM3.4 21C3.17909 21 3 20.8209 3 20.6V15.4C3 15.1791 3.17909 15 3.4 15H10.6C10.8209 15 11 15.1791 11 15.4V20.6C11 20.8209 10.8209 21 10.6 21H3.4ZM5 10.6C5 10.8209 5.17909 11 5.4 11H8.6C8.82091 11 9 10.8209 9 10.6V5.4C9 5.17909 8.82091 5 8.6 5H5.4C5.17909 5 5 5.17909 5 5.4V10.6ZM15 18.6C15 18.8209 15.1791 19 15.4 19H18.6C18.8209 19 19 18.8209 19 18.6V13.4C19 13.1791 18.8209 13 18.6 13H15.4C15.1791 13 15 13.1791 15 13.4V18.6ZM15 6.6C15 6.82091 15.1791 7 15.4 7H18.6C18.8209 7 19 6.82091 19 6.6V5.4C19 5.17909 18.8209 5 18.6 5H15.4C15.1791 5 15 5.17909 15 5.4V6.6ZM5 18.6C5 18.8209 5.17909 19 5.4 19H8.6C8.82091 19 9 18.8209 9 18.6V17.4C9 17.1791 8.82091 17 8.6 17H5.4C5.17909 17 5 17.1791 5 17.4V18.6Z" fill="#1F1F1F"/>
</g>
</svg>
